<svg width="1054" height="272" viewBox="0 0 1054 272" fill="none" xmlns="http://www.w3.org/2000/svg">
<path d="M225.6 41H220.7V239.4H225.6V41Z" fill="#0F0F0F"/>
<path d="M290.6 143.5L290.5 99.6L282.4 107.6V125L272.2 114.8L253.7 96.3L253.9 140.2L261.9 132.2V114.8L272.2 125L290.6 143.5Z" fill="#0F0F0F"/>
<path d="M336.5 96.3H320V103.2H336.6C336.6 103.2 347.8 106.4 347.8 116.9C347.8 116.9 349.7 128.3 336.6 131.7H320V138.6H336.6C336.6 138.6 354.9 134.4 354.9 116.7C354.8 116.7 354.9 99.2 336.5 96.3Z" fill="black"/>
<path d="M396.9 96.3H405L388.7 116L406.5 138.6H397.6L379.6 117.4L396.2 96.3H396.9Z" fill="black"/>
<path d="M479.4 138.7H460.1C459.6 138.7 459.2 138.5 458.8 138.2C458.4 137.9 458.2 137.4 458.2 136.8C458.2 136.3 458.4 135.9 458.8 135.5C459.2 135.1 459.6 134.9 460.1 134.9H479.4C481.8 134.9 484.1 134.4 486.2 133.5C488.3 132.6 490.2 131.4 491.7 129.8C493.2 128.3 494.5 126.4 495.4 124.4C496.3 122.3 496.8 120.1 496.8 117.6V117.2C496.8 114.9 496.3 112.6 495.4 110.5C494.5 108.4 493.2 106.5 491.7 105C490.2 103.5 488.3 102.2 486.2 101.3C484.1 100.4 481.8 99.9 479.4 99.9H460.1C459.6 99.9 459.2 99.7 458.8 99.4C458.4 99.1 458.2 98.6 458.2 98C458.2 97.5 458.4 97.1 458.8 96.7C459.2 96.3 459.6 96.2 460.1 96.2H479.4C482.3 96.2 485.1 96.8 487.6 97.9C490.1 99 492.4 100.5 494.3 102.5C496.2 104.4 497.7 106.6 498.9 109.2C500 111.7 500.6 114.5 500.6 117.4V117.8C500.6 120.7 500 123.4 498.9 126C497.8 128.5 496.2 130.8 494.3 132.7C492.4 134.6 490.1 136.1 487.6 137.2C485.1 138.2 482.3 138.7 479.4 138.7Z" fill="black"/>
<path d="M565.7 138.7C564.9 138.7 564.4 138.4 563.9 137.7L546.4 102.2L528.9 137.7C528.3 138.9 527.5 139.2 526.4 138.6C525.2 138 524.9 137.2 525.5 136.1L544.8 97.3C545.1 96.5 545.7 96.2 546.4 96.2C547.2 96.2 547.7 96.6 548.2 97.3L567.5 136.1C567.7 136.5 567.7 137 567.5 137.5C567.3 138 567 138.4 566.6 138.6C566.4 138.7 566.1 138.7 565.7 138.7Z" fill="black"/>
<path d="M624.7 138.7C624.1 138.7 623.7 138.5 623.3 138.1L596.2 103.5V136.8C596.2 137.4 596 137.8 595.6 138.2C595.2 138.5 594.8 138.7 594.3 138.7C593 138.7 592.4 138.1 592.4 136.8V98C592.4 97.1 592.8 96.5 593.7 96.2C594.5 95.9 595.2 96.2 595.8 96.8L622.7 131.3V98C622.7 97.5 622.9 97.1 623.2 96.7C623.5 96.3 624 96.1 624.6 96.1C625.1 96.1 625.5 96.3 625.9 96.7C626.3 97.1 626.4 97.5 626.4 98V136.8C626.4 137.8 626 138.4 625.1 138.7H624.7V138.7Z" fill="black"/>
<path d="M653.2 138.7C652.7 138.7 652.3 138.5 651.9 138.2C651.5 137.9 651.3 137.4 651.3 136.8V96.6C651.3 96.1 651.5 95.7 651.9 95.3C652.3 94.9 652.7 94.7 653.2 94.7C653.8 94.7 654.2 94.9 654.6 95.3C654.9 95.7 655.1 96.1 655.1 96.6V136.8C655 138.1 654.4 138.7 653.2 138.7Z" fill="black"/>
<path d="M696.9 138.7H695.4H695C692.1 138.5 689.4 137.9 687 136.8C684.6 135.7 682.7 134.2 681.5 132.4C681.2 132 681 131.5 681.1 131C681.2 130.5 681.4 130.1 681.9 129.7C682.3 129.4 682.8 129.3 683.3 129.4C683.8 129.5 684.2 129.8 684.6 130.2C684.9 130.5 685.1 130.7 685.4 131C685.7 131.3 686 131.6 686.4 131.8C686.4 131.9 686.4 131.9 686.5 131.9C689.2 133.9 692.7 134.9 697 134.9C698.8 134.9 700.6 134.7 702.2 134.3C703.8 133.9 705.3 133.3 706.5 132.6C707.8 131.9 708.7 131.1 709.4 130.2C710.1 129.3 710.5 128.3 710.5 127.2C710.5 126.1 710.1 125.1 709.4 124.2C708.7 123.3 707.7 122.5 706.5 121.8C705.2 121.1 703.8 120.5 702.2 120.1C700.6 119.7 698.8 119.5 697 119.5C694.6 119.5 692.3 119.2 690.2 118.6C688.1 118 686.3 117.2 684.8 116.1C683.3 115 682 113.8 681.2 112.4C680.3 111 679.9 109.5 679.9 107.8C679.9 106.2 680.3 104.7 681.2 103.3C682.1 101.9 683.3 100.6 684.8 99.4999C686.3 98.3999 688.2 97.5999 690.2 96.9999C692.3 96.3999 694.5 96.0999 697 96.0999C697.8 96.0999 698.3 96.0999 698.6 96.1999H699C701.9 96.3999 704.6 96.9999 707 98.0999C709.4 99.1999 711.2 100.6 712.6 102.4C712.9 102.8 713 103.3 712.9 103.8C712.8 104.3 712.5 104.8 712.1 105.1C711.7 105.4 711.2 105.4 710.7 105.4C710.2 105.3 709.8 105.1 709.4 104.6C709 104.1 708.4 103.6 707.8 103L707.7 102.9C706.4 102 704.8 101.3 702.9 100.7C701.1 100.2 699.1 99.8999 697 99.8999C693.3 99.8999 690.2 100.7 687.5 102.2C684.9 103.7 683.6 105.6 683.6 107.8C683.6 110 684.9 111.9 687.5 113.4C690.1 114.9 693.3 115.7 697 115.7C699.4 115.7 701.7 116 703.8 116.6C705.9 117.2 707.7 118 709.3 119.1C710.9 120.2 712.1 121.4 713 122.8C713.9 124.2 714.3 125.7 714.3 127.3C714.3 129 713.9 130.5 713 131.8C712.1 133.1 710.9 134.4 709.3 135.4C707.7 136.4 705.9 137.2 703.8 137.8C701.6 138.4 699.3 138.7 696.9 138.7Z" fill="black"/>
<path d="M779.3 138.7C778.8 138.7 778.4 138.5 778 138.2C777.6 137.9 777.4 137.4 777.4 136.8V102.7L761.6 118.7C761.3 119 760.9 119.2 760.2 119.3C759.6 119.3 759.2 119.1 758.9 118.7L742.6 102.5V136.7C742.6 138 742 138.6 740.7 138.6C740.2 138.6 739.8 138.4 739.4 138.1C739 137.8 738.9 137.3 738.9 136.7V97.9999C738.9 97.1999 739.3 96.5999 740.1 96.3999C740.8 95.8999 741.5 95.9999 742 96.7999L760.2 114.8L777.9 96.7999C778.4 96.0999 779.1 95.9999 780 96.2999C780.8 96.6999 781.1 97.2999 781.1 98.0999V136.9C781.1 137.5 780.9 137.9 780.5 138.3C780.3 138.5 779.8 138.7 779.3 138.7Z" fill="black"/>
<path d="M846.3 138.7C845.5 138.7 845 138.4 844.5 137.7L827 102.2L809.5 137.7C808.9 138.9 808.1 139.2 807 138.6C805.8 138 805.5 137.2 806.1 136.1L825.4 97.3C825.7 96.5 826.3 96.2 827 96.2C827.7 96.2 828.3 96.6 828.8 97.3L848.1 136.1C848.3 136.5 848.3 137 848.1 137.5C847.9 138 847.6 138.4 847.2 138.6C847.1 138.7 846.8 138.7 846.3 138.7Z" fill="black"/>
<path d="M905.299 138.7C904.699 138.7 904.3 138.5 903.9 138.1L876.799 103.5V136.8C876.799 137.4 876.6 137.8 876.2 138.2C875.8 138.5 875.4 138.7 874.9 138.7C873.6 138.7 873 138.1 873 136.8V98C873 97.1 873.399 96.5 874.299 96.2C875.099 95.9 875.8 96.2 876.4 96.8L903.299 131.3V98C903.299 97.5 903.499 97.1 903.799 96.7C904.099 96.3 904.6 96.1 905.2 96.1C905.7 96.1 906.1 96.3 906.5 96.7C906.9 97.1 907 97.5 907 98V136.8C907 137.8 906.6 138.4 905.7 138.7H905.299V138.7Z" fill="black"/>
<path d="M964.2 138.7H933.8C932.5 138.7 931.9 138.1 931.9 136.8V97.9999C931.9 97.4999 932.1 97.0999 932.4 96.6999C932.7 96.2999 933.2 96.0999 933.8 96.0999C934.3 96.0999 934.7 96.2999 935.1 96.6999C935.5 97.0999 935.7 97.4999 935.7 97.9999V135H964.3C964.8 135 965.2 135.2 965.6 135.6C966 136 966.2 136.4 966.2 136.9C966.2 137.5 966 137.9 965.6 138.3C965.2 138.5 964.7 138.7 964.2 138.7Z" fill="black"/>
<path d="M992.7 138.7C992.2 138.7 991.8 138.5 991.4 138.2C991 137.9 990.8 137.4 990.8 136.8V96.6C990.8 96.1 991 95.7 991.4 95.3C991.8 94.9 992.2 94.7 992.7 94.7C993.3 94.7 993.7 94.9 994.1 95.3C994.4 95.7 994.6 96.1 994.6 96.6V136.8C994.5 138.1 993.9 138.7 992.7 138.7Z" fill="black"/>
<path d="M1051.5 138.7C1051 138.7 1050.6 138.6 1050.4 138.4L1023 120.9V136.8C1023 137.4 1022.8 137.8 1022.4 138.2C1022 138.5 1021.6 138.7 1021.1 138.7C1019.8 138.7 1019.2 138.1 1019.2 136.8V117.5V117.4V97.9999C1019.2 97.4999 1019.4 97.0999 1019.7 96.6999C1020 96.2999 1020.5 96.0999 1021.1 96.0999C1021.6 96.0999 1022 96.2999 1022.4 96.6999C1022.8 97.0999 1023 97.4999 1023 97.9999V114L1050.4 96.4999C1050.8 96.1999 1051.3 96.0999 1051.8 96.1999C1052.3 96.2999 1052.7 96.5999 1053 96.9999C1053.3 97.3999 1053.4 97.7999 1053.4 97.9999C1053.4 98.6999 1053.1 99.1999 1052.5 99.5999L1024.6 117.4L1052.5 135.3C1053.1 135.6 1053.4 136.1 1053.4 136.8C1053.4 137.2 1053.3 137.6 1053 137.8C1052.7 138.4 1052.2 138.7 1051.5 138.7Z" fill="black"/>
<path d="M255.3 173.4H259.4C260.4 173.4 261.2 173.5 261.8 173.8C262.4 174 262.8 174.4 263.1 174.9C263.4 175.4 263.6 176 263.6 176.6C263.6 177.2 263.5 177.7 263.2 178.2C262.9 178.7 262.5 179.1 262 179.3C262.7 179.5 263.2 179.8 263.6 180.1C264 180.4 264.2 180.8 264.4 181.2C264.6 181.6 264.7 182.1 264.7 182.6C264.7 183.6 264.3 184.5 263.6 185.2C262.8 185.9 261.8 186.3 260.5 186.3H255.4V173.4H255.3ZM256.5 174.7V178.8H258.8C259.7 178.8 260.4 178.7 260.8 178.5C261.2 178.3 261.6 178.1 261.8 177.7C262 177.3 262.2 176.9 262.2 176.5C262.2 175.9 262 175.4 261.6 175.1C261.2 174.8 260.5 174.6 259.6 174.6H256.5V174.7ZM256.5 180.1V185.1H259.7C260.6 185.1 261.3 185 261.8 184.8C262.2 184.6 262.6 184.3 262.9 183.9C263.2 183.5 263.3 183.1 263.3 182.6C263.3 182 263.1 181.5 262.7 181.1C262.3 180.7 261.8 180.4 261.1 180.2C260.7 180.1 259.9 180 258.8 180H256.5V180.1Z" fill="black"/>
<path d="M283.6 173.5H285.1L288.4 178.8L291.6 173.5H293.1L289 180.3V186.5H287.7V180.3L283.6 173.5Z" fill="black"/>
<path d="M335.4 173.4H339.5C340.5 173.4 341.3 173.5 341.9 173.8C342.5 174 342.9 174.4 343.2 174.9C343.5 175.4 343.7 176 343.7 176.6C343.7 177.2 343.6 177.7 343.3 178.2C343 178.7 342.6 179.1 342.1 179.3C342.8 179.5 343.3 179.8 343.7 180.1C344.1 180.4 344.3 180.8 344.5 181.2C344.7 181.6 344.8 182.1 344.8 182.6C344.8 183.6 344.4 184.5 343.7 185.2C342.9 185.9 341.9 186.3 340.6 186.3H335.5V173.4H335.4ZM336.7 174.7V178.8H339C339.9 178.8 340.6 178.7 341 178.5C341.4 178.3 341.8 178.1 342 177.7C342.2 177.3 342.4 176.9 342.4 176.5C342.4 175.9 342.2 175.4 341.8 175.1C341.4 174.8 340.7 174.6 339.8 174.6H336.7V174.7ZM336.7 180.1V185.1H339.9C340.8 185.1 341.5 185 342 184.8C342.4 184.6 342.8 184.3 343.1 183.9C343.4 183.5 343.5 183.1 343.5 182.6C343.5 182 343.3 181.5 342.9 181.1C342.5 180.7 342 180.4 341.3 180.2C340.9 180.1 340.1 180 339 180H336.7V180.1Z" fill="black"/>
<path d="M364.8 173.2H366.1V181C366.1 181.9 366.1 182.5 366.2 182.7C366.3 183.2 366.4 183.6 366.6 184C366.8 184.3 367.2 184.6 367.7 184.9C368.2 185.1 368.7 185.2 369.2 185.2C369.6 185.3 370.2 185.3 371 185.1C371.8 184.9 372.2 184.6 372.5 184.3C372.8 183.9 373 183.5 373.1 183C373.2 182.7 373.2 182 373.2 181V173.2H374.5V181C374.5 182.2 374.4 183.1 374.2 183.8C374 184.5 373.5 185.1 372.8 185.7C372.1 186.2 371 186.5 369.3 186.5C368.3 186.5 367.4 186.2 366.6 185.7C365.9 185.2 365.4 184.5 365.1 183.7C364.9 183.2 364.9 182.3 364.9 181V173.2H364.8Z" fill="black"/>
<path d="M407.9 175.7L406.9 176.7C406.2 176 405.4 175.5 404.5 175.1C403.6 174.7 402.8 174.6 402 174.6C401 174.6 400 174.9 399.1 175.4C398.2 175.9 397.5 176.6 397 177.4C396.5 178.2 396.2 179.1 396.2 179.8C396.2 180.8 396.5 181.7 397 182.6C397.5 183.5 398.2 184.2 399.2 184.7C400.1 185.2 401.1 185.4 402.2 185.4C403.5 185.4 404.7 185 405.6 184.3C406.5 183.5 407.1 182.6 407.2 181.4H403.1V180H408.7C408.7 182 408.1 183.6 406.9 184.8C405.7 186 404.2 186.6 402.2 186.6C399.8 186.6 397.9 185.8 396.5 184.2C395.4 182.9 394.9 181.5 394.9 179.8C394.9 178.6 395.2 177.5 395.8 176.5C396.4 175.5 397.3 174.8 398.3 174.2C399.3 173.6 400.6 173.3 401.9 173.3C403 173.3 404 173.5 405 173.9C406.1 174.2 407 174.8 407.9 175.7Z" fill="black"/>
<path d="M429.2 173.5H431.8C433.2 173.5 434.2 173.6 434.7 173.7C435.5 173.9 436.1 174.3 436.6 174.8C437.1 175.4 437.3 176.1 437.3 176.9C437.3 177.6 437.1 178.2 436.8 178.8C436.5 179.3 436 179.7 435.4 180C434.8 180.3 434.2 180.4 433.8 180.4L437.5 186.4H435.9L432.2 180.4H430.5V186.4H429.2V173.5V173.5ZM430.5 174.7V179.1H432.7C433.6 179.1 434.2 179 434.6 178.9C435 178.7 435.3 178.5 435.6 178.1C435.9 177.7 435.9 177.3 435.9 176.9C435.9 176.5 435.8 176.1 435.5 175.7C435.3 175.3 435 175.1 434.6 174.9C434.2 174.7 433.6 174.7 432.7 174.7H430.5V174.7Z" fill="black"/>
<path d="M463.4 173.4L469.4 186.4H468L466 182.1H460.4L458.4 186.4H457L463.1 173.4H463.4ZM463.2 176.2L461 180.9H465.4L463.2 176.2Z" fill="black"/>
<path d="M510.6 186.4L512.4 173.5H512.6L517.9 184.1L523.1 173.5H523.3L525.2 186.4H523.9L522.6 177.1L518 186.4H517.7L513.1 177.1L511.8 186.4H510.6Z" fill="black"/>
<path d="M545.5 173.5H546.8V186.4H545.5V173.5Z" fill="black"/>
<path d="M566.4 183.8L567.5 183.1C568.3 184.5 569.2 185.2 570.2 185.2C570.6 185.2 571 185.1 571.4 184.9C571.8 184.7 572.1 184.4 572.3 184.1C572.5 183.8 572.6 183.4 572.6 183C572.6 182.6 572.5 182.1 572.2 181.7C571.8 181.1 571 180.5 570 179.9C568.9 179.1 568.2 178.5 568 178.1C567.5 177.5 567.3 176.8 567.3 176.1C567.3 175.5 567.4 175 567.7 174.6C568 174.1 568.3 173.8 568.8 173.5C569.3 173.2 569.8 173.1 570.4 173.1C571 173.1 571.6 173.3 572.1 173.6C572.6 173.9 573.2 174.5 573.8 175.3L572.7 176.1C572.2 175.5 571.8 175 571.5 174.8C571.2 174.6 570.8 174.5 570.4 174.5C569.9 174.5 569.5 174.7 569.1 175C568.8 175.3 568.6 175.7 568.6 176.2C568.6 176.5 568.7 176.8 568.8 177C568.9 177.3 569.1 177.6 569.4 177.9C569.6 178.1 570.1 178.5 571.1 179.2C572.2 180 573 180.7 573.4 181.3C573.8 181.9 574 182.4 574 183.1C574 184 573.6 184.9 572.9 185.6C572.2 186.3 571.3 186.6 570.3 186.6C569.5 186.6 568.8 186.4 568.2 186C567.6 185.5 567 184.8 566.4 183.8Z" fill="black"/>
<path d="M594.8 173.5H597.4C598.8 173.5 599.8 173.6 600.3 173.7C601.1 173.9 601.7 174.3 602.2 174.8C602.7 175.3 602.9 176.1 602.9 176.9C602.9 177.6 602.7 178.2 602.4 178.8C602.1 179.3 601.6 179.7 601 180C600.4 180.3 599.8 180.4 599.4 180.4L603.1 186.4H601.5L597.8 180.4H596.1V186.4H594.8V173.5ZM596.1 174.7V179.1H598.3C599.2 179.1 599.8 179 600.2 178.9C600.6 178.7 600.9 178.5 601.2 178.1C601.4 177.7 601.5 177.3 601.5 176.9C601.5 176.5 601.4 176.1 601.1 175.7C600.8 175.3 600.6 175.1 600.2 174.9C599.8 174.7 599.2 174.7 598.3 174.7H596.1V174.7Z" fill="black"/>
<path d="M624.1 169.8C624.4 169.8 624.6 169.9 624.8 170.1C625 170.3 625.1 170.5 625.1 170.8C625.1 171.1 625 171.3 624.8 171.5C624.6 171.7 624.4 171.8 624.1 171.8C623.8 171.8 623.6 171.7 623.4 171.5C623.2 171.3 623.1 171.1 623.1 170.8C623.1 170.5 623.2 170.3 623.4 170.1C623.6 169.9 623.8 169.8 624.1 169.8ZM623.5 173.2H624.8V186.2H623.5V173.2Z" fill="black"/>
<path d="M699.6 139.5L700.8 137.6H697.8L695.7 141.3C698.4 141.6 700.2 142.3 700.2 143.7C700.2 145 699.1 145.5 697.8 145.5C696.6 145.5 695.6 145.2 694.7 144.6L693.8 147C694.8 147.6 696.3 148 697.8 148C700.9 148 703.7 146.7 703.7 143.4C703.6 141.4 701.8 139.8 699.6 139.5Z" fill="black"/>
<path d="M404.8 168.5C404.8 169.3 404.6 169.9 404.1 170.3C403.6 170.7 402.9 171 402.1 171C401.3 171 400.5 170.8 400 170.3C399.5 169.8 399.3 169.3 399.3 168.5V168.4H399.8C399.8 169 400 169.5 400.3 169.8C400.7 170.2 401.2 170.3 402 170.3C402.8 170.3 403.3 170.1 403.7 169.7C404.1 169.3 404.3 168.9 404.3 168.3H404.8V168.5Z" fill="black"/>
<path d="M161.9 238.9C134.2 243.1 112.5 221.7 116.1 194.1C116.5 190.7 118.2 189.7 121.2 190.1C125.1 190.6 129.1 191.2 133 191.2C136.7 191.3 138.6 189.4 138.2 185.3C138 183.2 139.1 181 139.5 178.8C140 175.6 140.3 172.3 141 169.1C141.4 167.4 142.2 165 143.5 164.6C147.8 163 147.7 160.7 145.6 157.4C144.2 155.1 142.6 152.8 141.7 150.3C140.5 146.6 139.1 142.8 139 139C138.7 129.6 137.8 120.6 130.1 113.8C124.4 108.7 117.5 106.8 110.3 105.9C98.3998 104.5 87.0998 105.4 77.3998 113.5C63.2998 125.4 60.1998 145.3 69.4998 161.2C72.9998 167.2 76.2998 173.8 77.9998 180.5C81.9998 196 71.5998 210.7 56.1998 212.3C53.6998 212.5 51.0998 212.3 48.5998 211.9C42.2998 211 40.0998 207.9 41.0998 201.7C41.9998 196.2 41.6998 191 37.8998 186.4C35.7998 183.8 36.2998 182.8 40.1998 179.6C39.0998 178.7 37.9998 177.8 36.9998 176.9C34.8998 174.9 33.5998 173.1 35.6998 170C38.4998 165.9 36.4998 161.6 31.6998 160C30.8998 159.7 30.0998 159.5 29.2998 159.2C24.2998 157.2 22.9998 154 25.4998 149.2C29.2998 142.2 32.8998 135.1 36.9998 128.3C39.9998 123.3 40.6998 118 40.7998 112.4C40.8998 105 40.3998 97.5 41.5998 90.3C44.7998 70.2 56.3998 56.5 75.3998 49.5C95.7998 41.9 116.9 40.5 137.7 46.3C161.7 53 177 69.6 185.1 93C192.2 113.8 190.3 133.4 178 151.9C168.9 165.4 161.3 179.6 159.2 196.1C157.7 207.8 159.2 219.3 160.8 230.8C161.3 233.6 161.6 236.3 161.9 238.9Z" fill="black"/>
</svg>
